<svg width="119" height="50" viewBox="0 0 119 50" fill="none" xmlns="http://www.w3.org/2000/svg"><path d="M24.0749 24.9217H23.4949C23.1591 24.9217 22.8843 24.7385 22.6706 24.3721C22.4569 24.0058 22.3348 23.5479 22.3348 22.9678V10.4511C22.3348 10.1153 22.2432 9.8405 22.0295 9.6268C21.8158 9.4131 21.5411 9.32151 21.2053 9.32151C20.8694 9.32151 20.5947 9.4131 20.381 9.6268C20.1673 9.8405 20.0757 10.1153 20.0757 10.4511V22.9678C20.0757 23.7921 20.2283 24.5248 20.5031 25.1659C20.7779 25.807 21.2053 26.2954 21.7242 26.6618C22.2432 27.0281 22.8538 27.2113 23.5254 27.2113H23.556C24.0139 27.2113 24.3802 27.0892 24.6855 26.8755C24.9603 26.6618 25.1129 26.387 25.1129 26.0512C25.1129 25.7154 25.0213 25.4406 24.8382 25.2269C24.6245 25.0438 24.3802 24.9217 24.0749 24.9217Z" fill="white"/><path d="M36.0417 15.4284C35.0953 14.8789 34.0268 14.6041 32.8362 14.6041C31.6455 14.6041 30.577 14.8789 29.6306 15.4284C28.6843 15.9779 27.921 16.7412 27.3715 17.7181C26.822 18.6645 26.5472 19.7635 26.5472 20.9846C26.5472 22.2058 26.7915 23.2743 27.3105 24.2207C27.8295 25.1671 28.5316 25.9303 29.4169 26.4798C30.3023 27.0293 31.3097 27.3041 32.4088 27.3041C33.5078 27.3041 34.5152 27.0293 35.4006 26.4798C35.9501 26.144 36.408 25.7166 36.8049 25.1976V26.0829C36.8049 26.4187 36.927 26.6935 37.1407 26.9072C37.3544 27.1209 37.6292 27.243 37.965 27.243C38.3008 27.243 38.5755 27.1209 38.7892 26.9072C39.0029 26.6935 39.1251 26.4187 39.1251 26.0829V20.9541C39.1251 19.733 38.8503 18.6645 38.3008 17.6875C37.7513 16.7412 36.988 16.0085 36.0417 15.4284ZM36.3775 23.1522C36.0111 23.7933 35.5532 24.3123 34.9426 24.6786C34.3321 25.0449 33.6299 25.2281 32.8667 25.2281C32.1035 25.2281 31.4013 25.0449 30.7907 24.6786C30.1802 24.3123 29.6917 23.7933 29.3254 23.1522C28.959 22.5111 28.7758 21.7784 28.7758 20.9541C28.7758 20.1298 28.959 19.3971 29.3254 18.756C29.6917 18.1149 30.1802 17.596 30.7907 17.2296C31.4013 16.8633 32.1035 16.6801 32.8667 16.6801C33.6604 16.6801 34.3321 16.8633 34.9426 17.2296C35.5532 17.596 36.0417 18.1149 36.3775 18.756C36.7133 19.3971 36.8965 20.1298 36.8965 20.9541C36.8965 21.7784 36.7133 22.5111 36.3775 23.1522Z" fill="white"/><path d="M51.0927 15.4288C50.2074 14.8793 49.1999 14.6046 48.1009 14.6046C47.185 14.6046 46.3608 14.7877 45.6281 15.1541C44.8649 15.5204 44.2238 16.0394 43.7048 16.6805V10.5137C43.7048 10.1474 43.5827 9.87263 43.369 9.65893C43.1553 9.44523 42.8805 9.35364 42.5141 9.35364C42.1783 9.35364 41.9036 9.44523 41.6899 9.65893C41.4762 9.87263 41.3541 10.1474 41.3541 10.5137V20.9545C41.3541 22.1451 41.6593 23.2442 42.2089 24.2211C42.7584 25.1675 43.4911 25.9307 44.468 26.5107C45.4144 27.0603 46.4829 27.335 47.6735 27.335C48.8641 27.335 49.9631 27.0603 50.9095 26.5107C51.8559 25.9612 52.6191 25.198 53.1687 24.2211C53.7182 23.2747 53.9929 22.1757 53.9929 20.9545C53.9929 19.7639 53.7487 18.6649 53.2297 17.7185C52.6497 16.7416 51.978 16.0089 51.0927 15.4288ZM51.1538 23.1526C50.7874 23.7937 50.299 24.3127 49.6884 24.7096C49.0778 25.0759 48.3757 25.2591 47.6124 25.2591C46.8492 25.2591 46.1471 25.0759 45.5365 24.7096C44.9259 24.3432 44.4375 23.8242 44.0711 23.1526C43.7048 22.5115 43.5521 21.7788 43.5521 20.9545C43.5521 20.1303 43.7353 19.3976 44.0711 18.7565C44.4069 18.1154 44.8954 17.5964 45.5365 17.23C46.1471 16.8637 46.8492 16.6805 47.6124 16.6805C48.4062 16.6805 49.0778 16.8637 49.6884 17.23C50.299 17.5964 50.7874 18.1154 51.1538 18.7565C51.5201 19.3976 51.7033 20.1303 51.7033 20.9545C51.7033 21.7483 51.5201 22.481 51.1538 23.1526Z" fill="white"/><path d="M67.732 14.7258C67.5794 14.6647 67.3962 14.6342 67.213 14.6953C67.0299 14.7563 66.9078 14.8784 66.8467 15.0311L62.2369 25.2277L57.5355 15.0616C57.4439 14.8784 57.3523 14.7869 57.1691 14.7258C57.0165 14.6647 56.8333 14.6647 56.6807 14.7563C56.4975 14.8479 56.4059 14.9395 56.3448 15.1227C56.2838 15.2753 56.2838 15.4585 56.3448 15.6111L61.5652 26.7846C61.6874 27.1204 61.9011 27.2731 62.2063 27.2731C62.5422 27.2731 62.7864 27.1204 62.939 26.7846L68.0984 15.5806C68.19 15.428 68.19 15.2448 68.0984 15.0921C68.0068 14.909 67.8847 14.7869 67.732 14.7258Z" fill="white"/><path d="M71.363 14.6973C71.1493 14.6973 70.9966 14.7584 70.8745 14.8805C70.7524 15.0026 70.6914 15.1858 70.6914 15.3995V26.5425C70.6914 26.7562 70.7524 26.9088 70.8745 27.0309C70.9966 27.153 71.1798 27.2141 71.363 27.2141C71.5767 27.2141 71.7599 27.153 71.882 27.0309C72.0041 26.9088 72.0651 26.7256 72.0651 26.5425V15.369C72.0651 15.1553 72.0041 14.9721 71.882 14.85C71.7293 14.7584 71.5767 14.6973 71.363 14.6973Z" fill="white"/><path d="M71.3646 9.93525C71.0899 9.93525 70.8456 10.0268 70.6319 10.21C70.4182 10.3932 70.2961 10.6374 70.2961 11.0038C70.2961 11.309 70.3877 11.5533 70.6014 11.767C70.8151 11.9807 71.0593 12.0723 71.3341 12.0723C71.6394 12.0723 71.8836 11.9807 72.0973 11.767C72.311 11.5533 72.4026 11.309 72.4026 11.0038C72.4026 10.6679 72.2805 10.3932 72.0668 10.21C71.8531 10.0268 71.6088 9.93525 71.3646 9.93525Z" fill="white"/><path d="M83.0856 21.0168C82.414 20.6504 81.5287 20.4062 80.3686 20.2536C79.5138 20.1314 78.8727 19.9788 78.3537 19.7651C77.8652 19.5514 77.4989 19.3072 77.2546 19.0019C77.0409 18.6966 76.9188 18.3608 76.9188 17.9639C76.9188 17.3839 77.1936 16.8954 77.7126 16.468C78.2621 16.0711 78.9948 15.8574 79.9717 15.8574C80.7044 15.8574 81.315 15.9795 81.8645 16.2238C82.414 16.468 82.8719 16.8343 83.2383 17.3228C83.3604 17.4755 83.513 17.567 83.6657 17.5976C83.8183 17.6281 84.0015 17.5976 84.1541 17.5365C84.3373 17.4449 84.4594 17.2923 84.5205 17.1091C84.551 16.9259 84.5205 16.7733 84.3984 16.6206C83.9404 16.0101 83.3604 15.4911 82.6582 15.1247C81.9255 14.7584 81.0707 14.5752 80.0328 14.5752C79.178 14.5752 78.4147 14.6973 77.7431 14.9721C77.0715 15.2469 76.5525 15.6437 76.1861 16.1627C75.8198 16.6817 75.6061 17.3228 75.6061 18.086C75.6061 18.9103 75.9724 19.6125 76.7051 20.223C77.4378 20.8336 78.5674 21.2305 80.0938 21.4442C81.2844 21.6273 82.1698 21.9021 82.7498 22.2685C83.3299 22.6653 83.6046 23.1538 83.6046 23.7338C83.6046 24.3444 83.3298 24.8634 82.8109 25.3213C82.2613 25.7792 81.376 26.0235 80.0938 26.0235C79.3306 26.0235 78.659 25.9319 78.0179 25.7182C77.3768 25.5045 76.8578 25.1381 76.3998 24.6192C76.2777 24.4665 76.1556 24.4055 75.9724 24.3749C75.7893 24.3444 75.6366 24.3749 75.484 24.497C75.3008 24.6192 75.2092 24.7718 75.2092 24.955C75.2092 25.1381 75.2398 25.2908 75.3619 25.4434C75.9419 26.1456 76.6746 26.634 77.5294 26.9088C78.4147 27.1836 79.239 27.3362 80.0328 27.3362C80.9181 27.3362 81.7118 27.1836 82.475 26.9088C83.2077 26.634 83.8183 26.2066 84.2762 25.6877C84.7342 25.1687 84.9479 24.5276 84.9479 23.7949C84.9479 23.2454 84.7952 22.7264 84.5205 22.2379C84.2457 21.8105 83.7572 21.3831 83.0856 21.0168Z" fill="white"/><path d="M88.7693 14.6973C88.5556 14.6973 88.403 14.7584 88.2809 14.8805C88.1588 15.0026 88.0977 15.1858 88.0977 15.3995V26.5425C88.0977 26.7562 88.1588 26.9088 88.2809 27.0309C88.403 27.153 88.5862 27.2141 88.7693 27.2141C88.983 27.2141 89.1357 27.153 89.2578 27.0309C89.3799 26.9088 89.441 26.7256 89.441 26.5425V15.369C89.441 15.1553 89.3799 14.9721 89.2578 14.85C89.1357 14.7584 88.983 14.6973 88.7693 14.6973Z" fill="white"/><path d="M88.7646 9.93525C88.4898 9.93525 88.2456 10.0268 88.0319 10.21C87.8182 10.3932 87.696 10.6374 87.696 11.0038C87.696 11.309 87.7876 11.5533 88.0013 11.767C88.215 11.9807 88.4593 12.0723 88.734 12.0723C89.0393 12.0723 89.2835 11.9807 89.4972 11.767C89.7109 11.5533 89.8025 11.309 89.8025 11.0038C89.8025 10.6679 89.6804 10.3932 89.4667 10.21C89.253 10.0268 89.0088 9.93525 88.7646 9.93525Z" fill="white"/><path d="M101.712 15.3995C100.735 14.85 99.6661 14.5752 98.445 14.5752C97.2239 14.5752 96.1248 14.85 95.1479 15.3995C94.171 15.949 93.4078 16.7122 92.8583 17.6892C92.3087 18.6661 92.034 19.7651 92.034 20.9862C92.034 22.2074 92.3087 23.2759 92.8583 24.2528C93.4078 25.2297 94.171 25.9929 95.1479 26.5425C96.1248 27.092 97.2239 27.3667 98.445 27.3667C99.6661 27.3667 100.765 27.092 101.712 26.5425C102.688 25.9929 103.421 25.2297 104.001 24.2528C104.551 23.2759 104.825 22.2074 104.825 20.9862C104.825 19.7651 104.551 18.6661 104.001 17.6892C103.452 16.7122 102.688 15.949 101.712 15.3995ZM102.811 23.5812C102.383 24.3444 101.773 24.955 101.009 25.4129C100.246 25.8708 99.3914 26.0845 98.445 26.0845C97.4986 26.0845 96.6438 25.8708 95.8806 25.4129C95.1174 24.955 94.5068 24.3444 94.0794 23.5812C93.652 22.818 93.4078 21.9326 93.4078 20.9862C93.4078 20.0093 93.6215 19.124 94.0794 18.3608C94.5373 17.5976 95.1174 16.987 95.8806 16.5291C96.6438 16.0711 97.4986 15.8574 98.445 15.8574C99.4219 15.8574 100.277 16.0711 101.009 16.5291C101.773 16.987 102.353 17.5976 102.811 18.3608C103.238 19.124 103.452 20.0093 103.452 20.9557C103.452 21.9326 103.238 22.7874 102.811 23.5812Z" fill="white"/><path d="M117.768 17.167C117.28 16.3122 116.578 15.6405 115.692 15.1826C114.807 14.7247 113.83 14.511 112.731 14.511C111.754 14.511 110.869 14.7247 110.045 15.1521C109.373 15.5184 108.824 15.9763 108.366 16.5564V15.3658C108.366 15.1521 108.305 14.9689 108.182 14.8468C108.06 14.7247 107.877 14.6636 107.663 14.6636C107.45 14.6636 107.297 14.7247 107.175 14.8468C107.053 14.9689 106.992 15.1521 106.992 15.3658V26.5087C106.992 26.7224 107.053 26.8751 107.175 26.9972C107.297 27.1193 107.48 27.1804 107.663 27.1804C107.877 27.1804 108.03 27.1193 108.182 26.9972C108.305 26.8751 108.366 26.6919 108.366 26.5087V19.4871C108.366 18.8155 108.549 18.1744 108.946 17.6249C109.343 17.0754 109.862 16.648 110.503 16.3427C111.144 16.0374 111.907 15.8848 112.731 15.8848C113.555 15.8848 114.319 16.0374 114.99 16.3732C115.662 16.709 116.181 17.1975 116.578 17.8386C116.975 18.4797 117.158 19.3345 117.158 20.3419V26.5087C117.158 26.7224 117.219 26.8751 117.341 26.9972C117.463 27.1193 117.646 27.1804 117.829 27.1804C118.013 27.1804 118.196 27.1193 118.318 26.9972C118.44 26.8751 118.501 26.6919 118.501 26.5087V20.3725C118.532 19.0903 118.257 18.0523 117.768 17.167Z" fill="white"/><path d="M6.10037 16.9282C6.83306 15.8903 6.5583 14.4554 5.52033 13.7227C4.45182 12.99 3.01698 13.2343 2.31482 14.3028C1.58213 15.3408 1.85689 16.7756 2.89486 17.5083C3.93284 18.2104 5.36768 17.9662 6.10037 16.9282Z" fill="#F07F3C"/><path d="M42.1494 31.6054C39.4324 32.0634 37.6007 34.6583 38.0891 37.3753C38.5471 40.0924 41.142 41.9241 43.8591 41.4357C46.5761 40.9777 48.4078 38.3828 47.9194 35.6657C47.4614 32.9487 44.8665 31.1475 42.1494 31.6054Z" fill="#0093CB"/><path d="M33.7862 49.5256C36.2285 48.9456 37.7549 46.4728 37.1749 44.0305C36.5949 41.5882 34.122 40.0617 31.6797 40.6418C29.2374 41.2218 27.711 43.6946 28.2911 46.1369C28.8406 48.5792 31.3134 50.1057 33.7862 49.5256Z" fill="#00B4CD"/><path d="M22.2504 43.8517C20.8766 42.3558 18.5564 42.2337 17.0605 43.6075C15.5646 44.9813 15.4425 47.3015 16.8163 48.7974C18.1901 50.2933 20.5102 50.4154 22.0061 49.0416C23.502 47.6678 23.6242 45.3476 22.2504 43.8517Z" fill="#3AAA35"/><path d="M10.3721 36.8561C8.75412 36.0013 6.76976 36.6119 5.94549 38.2299C5.09068 39.848 5.70126 41.8323 7.31928 42.6566C8.93729 43.5114 10.9217 42.9008 11.7459 41.2828C12.5702 39.6953 11.9596 37.7109 10.3721 36.8561Z" fill="#E7E56E"/><path d="M2.25106 26.1181C0.846743 26.4539 -0.00805921 27.8887 0.358285 29.293C0.6941 30.6973 2.12895 31.5522 3.53327 31.1858C4.93758 30.85 5.79239 29.4151 5.42604 28.0108C5.0597 26.6065 3.62485 25.7517 2.25106 26.1181Z" fill="#F2C700"/><path d="M12.4749 7.70376C13.5128 7.82588 14.4592 7.09319 14.5813 6.05522C14.7034 5.01724 13.9708 4.07085 12.9328 3.94874C11.8948 3.82662 10.9484 4.55931 10.8263 5.59729C10.7042 6.63526 11.4369 7.58165 12.4749 7.70376Z" fill="#E8412F"/><path d="M24.8424 1.72C24.8424 0.926258 24.2013 0.285156 23.4076 0.285156C22.6139 0.285156 21.9727 0.926258 21.9727 1.72C21.9727 2.51375 22.6139 3.15485 23.4076 3.15485C24.2013 3.15485 24.8424 2.51375 24.8424 1.72Z" fill="#482681"/><path d="M34.5191 4.43366C35.0381 4.43366 35.4655 4.00626 35.4655 3.48727C35.4655 2.96828 35.0381 2.54088 34.5191 2.54088C34.0001 2.54088 33.5727 2.96828 33.5727 3.48727C33.5727 4.00626 34.0001 4.43366 34.5191 4.43366Z" fill="#1F3460"/></svg>