<?xml version="1.0" encoding="utf-8"?>
<!-- Generator: Adobe Illustrator 21.0.2, SVG Export Plug-In . SVG Version: 6.00 Build 0)  -->
<svg version="1.1" id="Слой_1" xmlns="http://www.w3.org/2000/svg" xmlns:xlink="http://www.w3.org/1999/xlink" x="0px" y="0px"
	 viewBox="0 0 414 65" style="enable-background:new 0 0 414 65;" xml:space="preserve">
<style type="text/css">
	.st0{fill:#FCB813;}
	.st1{fill:#EF4E23;}
</style>
<g>
	<g>
		<path class="st0" d="M61.9,31c-0.1-1-0.7-1.4-1.8-1.4c0,0-35.3,0-39.1,0c-4.3,0-5.3,1.6-6.4,3.9c-0.6,1.1-1.3,2.6-1.9,4
			C12,38.8,13,40,15.1,40c4.3,0,11.2,0,12.5,0c1.3,0,3.4-0.1,3.4-0.1l2.3-4.6c0.4-0.8,1-1.5,1.8-2.1c0.8-0.6,1.6-0.8,2.4-0.8
			c0.1,0,1.1,0,1.2,0c1,0,1.5,0.5,1.6,1.4c0.1,0.4,0,0.9-0.2,1.4l-3.4,7.4c-0.4,0.8-1,1.5-1.8,2c-0.8,0.6-1.6,0.8-2.4,0.8h-0.2H12
			c-0.8,0-1.6,0.3-2.4,0.8c-0.8,0.6-1.4,1.2-1.8,2L1.4,61.5c-0.2,0.5-0.3,1-0.3,1.4c0.1,1,0.7,1.4,1.8,1.4h40.8
			c0.8,0,1.6-0.3,2.4-0.8c0.8-0.6,1.4-1.2,1.8-2l13.7-29.1C61.9,31.9,62,31.4,61.9,31z M30.1,48.4c0.1,0,1.2,0,1.2,0
			c1,0.1,1.5,0.5,1.6,1.4c0.1,0.4,0,0.9-0.3,1.4l-3.5,7c-0.4,0.8-0.9,1.5-1.8,2c-0.8,0.6-1.6,0.8-2.4,0.8c-0.1,0-1.2,0-1.4,0
			c-0.9-0.1-1.3-0.6-1.4-1.4c-0.1-0.4,0-0.9,0.3-1.4l3.5-7c0.4-0.8,0.9-1.5,1.7-2C28.5,48.7,29.3,48.4,30.1,48.4z"/>
		<path class="st0" d="M123.9,10.9c-0.6-0.4-12.8-10.1-12.8-10.1s-0.7-0.3-1-0.3c-0.6,0-1.2,0.5-1.7,1.5l-12,24.7
			c-0.4,0.8-0.9,1.4-1.7,1.9c-0.8,0.5-1.5,0.8-2.3,0.8H73.2c-0.8,0-1.5,0.3-2.3,0.8c-0.8,0.5-1.3,1.2-1.7,1.9L55.3,61.6
			c-0.2,0.5-0.3,1-0.3,1.4c0.1,0.9,0.7,1.4,1.8,1.4h41.9c0.8,0,1.5-0.3,2.3-0.8c0.8-0.5,1.4-1.2,1.7-1.9l21.6-46.5
			C125.6,12.2,124.5,11.3,123.9,10.9z M94,35L82.9,58.6c-0.4,0.8-0.9,1.4-1.7,1.9c-0.6,0.4-1.5,0.6-2.4,0.6c-0.1,0-1.2,0-1.2,0
			c-0.7-0.1-1.2-0.5-1.3-1.3c0-0.4,0.1-0.9,0.4-1.4l11.1-23.7c0.4-0.8,0.9-1.4,1.7-2c0.8-0.5,1.4-0.5,2.1-0.5c0.1,0,1.1,0,1.2,0
			c0.9,0.1,1.5,0.5,1.6,1.4C94.4,34,94.3,34.5,94,35z"/>
	</g>
	<g>
		<path class="st1" d="M412.9,30.8c-0.1-1-0.7-1.4-1.8-1.4h-41.2c-0.8,0-1.6,0.3-2.4,0.8c-0.8,0.6-1.4,1.2-1.8,2l-13.7,29.1
			c-0.2,0.5-0.3,1-0.3,1.4c0.1,1,0.7,1.4,1.8,1.4h41.2c0.8,0,1.6-0.3,2.4-0.8c0.8-0.6,1.4-1.2,1.8-2l13.7-29.1
			C412.8,31.7,412.9,31.2,412.9,30.8z M373.6,58l10.8-23c0.4-0.8,0.9-1.5,1.8-2c0.8-0.6,1.6-0.8,2.4-0.8c0.1,0,1.1,0,1.2,0
			c1,0.1,1.5,0.5,1.6,1.4c0.1,0.4,0,0.9-0.3,1.4l-10.8,23c-0.4,0.8-0.9,1.5-1.8,2c-0.8,0.6-1.6,0.8-2.4,0.8c-0.1,0-1.2,0-1.3,0
			c-0.9-0.1-1.4-0.5-1.5-1.4C373.3,59,373.4,58.5,373.6,58z"/>
		<path class="st1" d="M224.3,30.8c-0.1-1-0.7-1.4-1.8-1.4h-41.2c-0.8,0-1.6,0.3-2.4,0.8c-0.8,0.6-1.4,1.2-1.8,2l-13.7,29.1
			c-0.2,0.5-0.3,1-0.3,1.4c0.1,1,0.7,1.4,1.8,1.4h41.2c0.8,0,1.6-0.3,2.4-0.8c0.8-0.6,1.4-1.2,1.8-2l13.7-29.1
			C224.3,31.7,224.4,31.2,224.3,30.8z M185.1,58l10.8-23c0.4-0.8,0.9-1.5,1.8-2c0.8-0.6,1.6-0.8,2.4-0.8c0.1,0,1.1,0,1.2,0
			c1,0.1,1.5,0.5,1.6,1.4c0.1,0.4,0,0.9-0.3,1.4l-10.8,23c-0.4,0.8-0.9,1.5-1.8,2c-0.8,0.6-1.6,0.8-2.4,0.8c-0.1,0-1.2,0-1.3,0
			c-0.9-0.1-1.4-0.5-1.5-1.4C184.8,59,184.9,58.5,185.1,58z"/>
		<path class="st1" d="M163.1,46.7h-19.8L137.7,58c-0.3,0.8-0.9,1.5-1.8,2c-0.8,0.6-1.6,0.8-2.4,0.8c-0.1,0-1.2,0-1.3,0
			c-0.9-0.1-1.4-0.5-1.5-1.4c-0.1-0.4,0-0.9,0.3-1.4l10.8-23c0.4-0.8,1-1.5,1.8-2c0.8-0.6,1.6-0.8,2.4-0.8c0.1,0,1.2,0,1.2,0
			c0.9,0.1,1.5,0.5,1.6,1.4c0.1,0.4,0,0.9-0.3,1.4l-2.5,5.6c0,0,12.1,0,16,0s5.2-3.2,5.2-3.2l2.4-5.3c0.2-0.5,0.3-1,0.3-1.4
			c-0.1-1-0.7-1.4-1.8-1.4H128c-0.8,0-1.6,0.3-2.4,0.8c-0.8,0.6-1.4,1.2-1.8,2L110,61.3c-0.2,0.5-0.3,1-0.3,1.4
			c0.1,1,0.7,1.4,1.8,1.4c0,0,34.5,0,37.9,0c5.4,0,7-3.9,7-3.9L163.1,46.7z"/>
		<path class="st1" d="M303.6,30.8c-0.1-1-0.7-1.4-1.8-1.4h-66c-0.8,0-1.6,0.3-2.4,0.8c-0.8,0.6-1.4,1.2-1.8,2l-13.7,29.1
			c-0.2,0.5-0.4,1-0.3,1.4c0.1,1,0.7,1.4,1.8,1.4h13.7c0.8,0,1.6-0.3,2.4-0.8c0.8-0.6,1.4-1.2,1.8-2l12.3-26.3c0.4-0.8,1-1.5,1.8-2
			c0.8-0.6,1.6-0.8,2.4-0.8c0.1,0,1.2,0,1.2,0c1,0.1,1.5,0.5,1.6,1.4c0.1,0.4-0.1,0.9-0.3,1.4L244,61.3c-0.2,0.5-0.4,1-0.3,1.4
			c0.1,1,0.7,1.4,1.8,1.4h13.3c0.8,0,1.6-0.3,2.4-0.8c0.8-0.6,1.4-1.2,1.8-2l12.4-26.3c0.4-0.8,0.9-1.5,1.7-2
			c0.8-0.6,1.6-0.8,2.4-0.8c0.1,0,1.2,0,1.2,0c1,0.1,1.5,0.5,1.6,1.4c0.1,0.4,0,0.9-0.3,1.4l-11.5,24.7c-0.4,0.8-0.5,1.7-0.4,2.7
			c0.1,0.7,0.6,1.7,2.3,1.7c0.7,0,12.5,0.3,13.6,0.3c1.1,0,2.1,0,2.9-1.5l14.2-30.7C303.5,31.7,303.6,31.2,303.6,30.8z"/>
		<path class="st1" d="M358.7,30.7c-0.1-0.9-0.7-1.4-1.8-1.4h-20.9c-1.1,0-1.7-0.4-1.8-1.3c0-0.3,4.9-11.2,5.1-11.5
			c0.7-1.6,1.2-3-0.1-4.2c-1.3-1.2-12.5-10.7-12.5-10.7c-0.9-0.7-1.8-0.5-2.5,1l-27.4,59c-0.2,0.5-0.3,1-0.2,1.4
			c0.1,0.9,0.7,1.4,1.7,1.4h42.2c0.8,0,1.5-0.3,2.3-0.8c0.8-0.5,1.3-1.2,1.7-1.9l13.9-29.4C358.6,31.6,358.7,31.2,358.7,30.7z
			 M319.7,58.3l11.1-23.5c0.3-0.8,0.9-1.4,1.7-1.9c0.8-0.5,1.5-0.8,2.3-0.8c0.1,0,1.1,0,1.2,0c0.9,0.1,1.5,0.5,1.6,1.4
			c0,0.4,0,0.9-0.2,1.4l-11.1,23.5c-0.4,0.8-0.9,1.4-1.7,1.9c-0.8,0.5-1.5,0.8-2.3,0.8c-0.1,0-1.2,0-1.3,0c-0.9-0.1-1.4-0.5-1.5-1.4
			C319.4,59.3,319.5,58.9,319.7,58.3z"/>
	</g>
</g>
</svg>
