<svg
        id="Symbol_AW"
        data-name="Symbol AW"
        xmlns="http://www.w3.org/2000/svg"
        version="1.1"
        viewBox="0 0 680.31 680.31">
    <defs>
        <style>
            .cls-1 {
            fill: #000;
            stroke-width: 0px;
            }
        </style>
    </defs>
    <path
            class="cls-1"
            d="M496.88,365.02c-.21-14.49-4.71-28.67-11.27-41.49-7.68-15.01-19.22-26.84-29.02-40.38-8.46-11.7-17.07-24.66-21.21-38.64-2.18-7.34-2.43-15.35-1.4-22.89.38-2.75.91-5.5,1.7-8.16.83-2.82,2.5-7.23,2.5-7.23,0,0-2.84,4.62-4.4,7.79-5.13,10.41-8.42,21.25-8.18,32.98.33,16.03,8.52,30.3,17.07,43.39,10.12,15.49,23.58,28.54,32.62,44.71,39.3,70.26-24.39,101.38-45.36,161.26-6.4-17.41-15.77-34.35-25.68-49.22-2.16-3.24-4.4-6.44-6.65-9.64,14.28-24.65,23.88-53.58,23.79-82.03-.05-18.08-3.89-36.98-10.05-53.37-12.52-33.28-38.85-58.77-52.69-91.28-7.56-17.77-12.3-37.21-10.77-56.62.44-5.69,1.2-11.47,3.08-16.87,2.02-5.83,3.72-9.75,3.72-9.75,0,0-3.52,5.79-5.41,9.76-7.34,15.37-10.62,31.84-9.07,49.25,1.71,19.27,8.34,38.28,17.87,55.05,9.03,15.89,20.22,30.44,29.84,45.97,17.3,27.97,23.07,53.06,24.05,69.02.72,11.66,1.72,40.68-17.76,76.06-8.85-12.58-17.49-25.48-22.29-41.27-2.68-8.81-4.06-18.31-3.78-27.53.73-19.46,12.01-39.09,12.01-39.09,0,0-24.26,28.11-20.44,65.29,1.13,10.99,4.95,21.34,9.41,31.04,4.32,9.42,10.07,17.88,16.03,26.22-1.01,1.47-2.05,2.94-3.13,4.42-18.85,25.77-32.68,62.59-38.89,81.3-8.06-27.49-21.73-56.97-39.93-83.73-2.61-3.84-5.17-7.66-7.65-11.51,14.41-18.89,27.17-36.37,28.77-63.01,1.2-20.17-4.97-37.84-11.77-51.68-7.34-14.93-17.52-27.68-26.12-41.81-7.33-12.06-14.58-25.19-17.84-39.03-1.59-6.76-1.49-13.83-.46-20.67,1.08-7.19,5.94-18.11,5.94-18.11,0,0-12.27,16.9-14.4,36.47-1.71,15.66,3.81,29.65,10.84,43.38,2.11,4.13,4.43,8.12,6.87,12.05-.08.13-.16.26-.24.41-2.11,3.6-3.96,7.53-5.56,11.39-11.05,26.69-14.64,51.39-12.21,74.63,2.41,22.96,10.69,44.51,23.45,65.17-9.74,14.22-19.47,30.07-25.62,50.01-6.38-17.22-15.63-34.68-25.94-49.87-9.21-13.57-20.65-25.17-28.17-39.89-2.5-4.9-4.97-9.86-6.76-15.1-2.9-8.49-4.98-17.95-5.08-26.93.28-21.13,10.34-39.57,10.34-39.57,0,0-17.97,25.49-18.17,55.62.03,3.44.35,7.9.87,11.29,1.62,10.57,5.51,20.31,10.36,29.8,7.23,14.13,17.97,25.27,26.92,38.19,11.56,16.69,21.11,35.39,28.13,54.47.16.45.43.3.86-.22,1.99-2.37,7.6-10.45,7.92-11.33,6.47-21.86,16.59-38.02,26.99-52.26,1.36,2.09,2.76,4.17,4.2,6.23,24.96,35.72,39.68,74.43,46.09,95.04.13.42.54.41.93-.07,1.96-2.42,7.03-10.51,7.26-11.53.74-3.33,15.99-50,42.33-86,.72-.99,1.43-1.98,2.14-2.99,2.07,2.87,4.14,5.75,6.16,8.66,11.56,16.69,21.11,35.39,28.13,54.47.18.5.55.25,1.08-.44,2.28-3.03,7.01-9.92,7.49-11.75,14-49.06,66.47-77.93,65.6-137.79ZM278.15,404.96c-8.82-22.47-11.43-42.9-11.53-55.9.15-18.13,4.47-36.17,11.18-52.94,0-.01,0-.02.01-.03,7.37,11.81,15.73,22.98,22.6,35.09,9.64,16.98,13.97,31.22,14.64,43.84,1.19,22.24-9.52,39.36-22.52,58.02-5.51-8.91-10.47-18.07-14.39-28.07Z"/>
</svg>