<svg xmlns="http://www.w3.org/2000/svg" width="44" height="44" viewBox="0 0 44 44" fill="none">
    <g clip-path="url(#clip0_1_460)">
        <path d="M25.1145 12.4698C23.5678 12.2388 22.01 12.0878 20.4475 12.0174C16.1173 11.8447 13.1171 13.0242 13.035 16.1517C12.9844 17.9443 14.1416 19.2171 15.8171 19.9631L19.3182 21.134L22.603 22.2324L27.1757 23.5155C25.7673 18.2344 14.7699 20.008 14.9392 15.4782C15.0038 13.7046 17.1087 12.1434 20.4038 12.5285C24.666 13.0242 24.8702 16.9271 24.8702 16.9271H25.0656"
              fill="white"/>
        <path d="M12.7192 31.1104C12.7192 31.1104 15.2045 31.948 17.7213 31.9946C22.0846 32.0792 25.0517 30.9429 25.1372 27.7618C25.1896 25.9381 23.9783 24.6204 22.308 23.8623L18.8086 22.6724L15.5257 21.5568L11 20.0181C12.1554 25.2197 23.233 24.3717 23.2348 28.4474C23.2348 30.2521 21.2853 31.7873 17.7544 31.3176C13.1764 30.7097 12.9792 26.6652 12.9792 26.6652H12.7087"
              fill="white"/>
        <path d="M31.8445 29.9036H34.9756V31.2368C34.9599 31.4751 34.8796 31.9189 34.5044 31.9189H34.3124V31.9984H36.5569V31.9189H36.3666C35.9862 31.9189 35.9094 31.4647 35.8937 31.2282V29.9036H36.625L36.5447 29.7464H35.8937L35.8762 25.2373H35.7453M34.9756 29.7464H32.3332L34.9774 26.5982L34.9756 29.7464Z"
              fill="white"/>
        <path d="M30.4308 26.1803L31.1534 25.2563H27.0763L26.5038 28.2423L26.5893 28.2785C27.0233 28.0171 27.5229 27.8818 28.031 27.8882C29.23 27.8882 30.1254 28.6084 30.1254 29.9122C30.1254 31.2161 29.3033 31.843 28.1916 31.8292C27.9725 31.8272 27.7549 31.7935 27.5458 31.729C26.3956 31.3353 26.3956 30.135 26.3956 30.135H26.3031V30.4804V31.6599C26.8515 31.8453 27.424 31.9518 28.0031 31.976C29.0607 31.995 29.9037 31.8136 30.464 31.204C30.7505 30.9315 30.9434 30.577 31.0155 30.1903C31.0366 30.1203 31.0454 30.0473 31.0417 29.9744C31.0417 29.914 31.0417 29.8535 31.0417 29.7914C31.0417 28.3303 29.7484 27.6655 28.2945 27.6655C27.7597 27.6526 27.2305 27.775 26.7569 28.0212L27.1182 26.1682L30.4308 26.1803Z"
              fill="white"/>
    </g>
    <defs>
        <clipPath id="clip0_1_460">
            <rect width="25.625"
                  height="20"
                  fill="white"
                  transform="translate(11 12)"/>
        </clipPath>
    </defs>
</svg>