<svg
        xmlns="http://www.w3.org/2000/svg"
        width="132"
        height="35"
        viewBox="0 0 132 35"
        fill="none">
    <path
            d="M95.9274 0.6875C86.5281 0.6875 78.9102 8.30702 78.9102 17.7047C78.9102 27.1041 86.5297 34.722 95.9274 34.722C105.327 34.722 112.945 27.1025 112.945 17.7047C112.945 8.30702 105.325 0.6875 95.9274 0.6875ZM104.633 26.4121H87.2201V8.99899H104.633V26.4121Z"
            fill="#fff"></path>
    <path
            d="M44.4925 1.90137C42.3137 1.90137 40.5482 3.65899 40.5276 5.83305L40.5244 5.83622V33.556H48.44V5.80613C48.459 4.57105 49.1858 3.51648 50.2309 3.01136L58.8005 33.5575H64.265L55.385 1.90137H44.4925Z"
            fill="#fff"></path>
    <path
            d="M72.1822 1.89551H64.2666V33.5564H72.1822V1.89551Z"
            fill="#fff"></path>
    <path
            d="M32.6053 1.89551H24.6896V22.9426C24.639 24.6464 23.2503 26.0161 21.5322 26.0161C18.7691 26.0161 15.4819 26.0161 12.0253 26.0161C10.2771 26.0161 8.85996 24.5989 8.85996 22.8508V1.89551H0.944336V26.4325H8.50052C8.70953 31.0467 12.3356 34.7218 16.7914 34.7218C21.2472 34.7218 24.8733 31.0451 25.0823 26.4325H32.6053V1.89551Z"
            fill="#fff"></path>
    <path
            d="M124.511 7.968C124.427 8.192 124.143 8.372 123.659 8.372C122.995 8.372 122.659 8.06 122.659 7.6C122.659 7.14 122.983 6.828 123.607 6.828C124.035 6.828 124.367 6.972 124.459 7.192L125.259 7.14C125.135 6.54 124.543 6.152 123.607 6.152C122.479 6.152 121.827 6.692 121.827 7.6C121.827 8.508 122.491 9.048 123.659 9.048C124.639 9.048 125.207 8.688 125.319 8.008L124.511 7.968ZM128.349 9H129.197L127.965 6.2H126.685L125.457 9H126.277L126.505 8.46H128.121L128.349 9ZM126.773 7.836L127.313 6.556L127.857 7.836H126.773Z"
            fill="#fff"></path>
</svg>